<svg width="46" height="48" viewBox="0 0 46 48" fill="none" xmlns="http://www.w3.org/2000/svg">
<path d="M4.97332 9.52202C2.20594 11.1156 0.5 14.0799 0.5 17.2883V30.7117C0.5 33.9201 2.20594 36.8844 4.97332 38.478L18.5924 46.3205C21.3234 47.8932 24.6766 47.8932 27.4076 46.3205L41.0267 38.478C43.7941 36.8844 45.5 33.9201 45.5 30.7117V17.2883C45.5 14.0799 43.7941 11.1156 41.0267 9.52202L27.4076 1.6795C24.6766 0.106834 21.3234 0.106834 18.5924 1.6795L4.97332 9.52202Z" stroke="#96DC68"/>
<path d="M2 17.6277C2 14.7287 3.53829 12.0519 6.03089 10.6136L19.0309 3.11202C21.4903 1.6928 24.5097 1.6928 26.9691 3.11202L39.9691 10.6136C42.4617 12.0519 44 14.7287 44 17.6277V30.4675C44 33.3665 42.4617 36.0433 39.9691 37.4817L26.9691 44.9832C24.5097 46.4024 21.4903 46.4024 19.0309 44.9832L6.03089 37.4817C3.53829 36.0433 2 33.3665 2 30.4675V17.6277Z" fill="#0E0910"/>
<path fill-rule="evenodd" clip-rule="evenodd" d="M32.375 8.70862C32.375 8.34424 32.23 7.99424 31.9725 7.73612C31.7144 7.47862 31.3644 7.33362 31 7.33362C30.6838 7.33362 30.3162 7.33362 30 7.33362C29.6356 7.33362 29.2856 7.47862 29.0275 7.73612C28.77 7.99424 28.625 8.34424 28.625 8.70862V20.9586C28.625 21.323 28.77 21.673 29.0275 21.9311C29.2856 22.1886 29.6356 22.3336 30 22.3336H31C31.3644 22.3336 31.7144 22.1886 31.9725 21.9311C32.23 21.673 32.375 21.323 32.375 20.9586V8.70862Z" fill="white"/>
<path fill-rule="evenodd" clip-rule="evenodd" d="M17.375 17.4586C17.375 17.0942 17.23 16.7442 16.9725 16.4861C16.7144 16.2286 16.3644 16.0836 16 16.0836C15.6837 16.0836 15.3163 16.0836 15 16.0836C14.6356 16.0836 14.2856 16.2286 14.0275 16.4861C13.77 16.7442 13.625 17.0942 13.625 17.4586V20.9586C13.625 21.323 13.77 21.673 14.0275 21.9311C14.2856 22.1886 14.6356 22.3336 15 22.3336H16C16.3644 22.3336 16.7144 22.1886 16.9725 21.9311C17.23 21.673 17.375 21.323 17.375 20.9586V17.4586Z" fill="white"/>
<path fill-rule="evenodd" clip-rule="evenodd" d="M27.375 14.9586C27.375 14.5942 27.23 14.2442 26.9725 13.9861C26.7144 13.7286 26.3644 13.5836 26 13.5836C25.6838 13.5836 25.3162 13.5836 25 13.5836C24.6356 13.5836 24.2856 13.7286 24.0275 13.9861C23.77 14.2442 23.625 14.5942 23.625 14.9586V20.9586C23.625 21.323 23.77 21.673 24.0275 21.9311C24.2856 22.1886 24.6356 22.3336 25 22.3336H26C26.3644 22.3336 26.7144 22.1886 26.9725 21.9311C27.23 21.673 27.375 21.323 27.375 20.9586V14.9586Z" fill="white"/>
<path fill-rule="evenodd" clip-rule="evenodd" d="M22.375 12.4586C22.375 11.6992 21.7594 11.0836 21 11.0836C20.6837 11.0836 20.3163 11.0836 20 11.0836C19.2406 11.0836 18.625 11.6992 18.625 12.4586V20.9586C18.625 21.718 19.2406 22.3336 20 22.3336H21C21.7594 22.3336 22.375 21.718 22.375 20.9586V12.4586Z" fill="white"/>
<path d="M14.8311 37.9508C13.249 37.9508 12.2041 37.1989 12.1162 35.9586L12.1113 35.8854H13.1758L13.1855 35.9489C13.2832 36.5983 13.9326 37.0035 14.875 37.0035C15.8174 37.0035 16.4131 36.5787 16.4131 35.9196V35.9147C16.4131 35.3483 16.0273 35.0406 15.0947 34.8356L14.3281 34.6744C12.9463 34.3815 12.2773 33.7467 12.2773 32.7018V32.6969C12.2822 31.4957 13.3418 30.6705 14.8311 30.6705C16.3008 30.6705 17.3066 31.4713 17.3799 32.653L17.3848 32.736H16.3203L16.3154 32.6676C16.2178 32.0133 15.6514 31.6178 14.8164 31.6178C13.9424 31.6227 13.3857 32.0377 13.3857 32.653V32.6578C13.3857 33.1852 13.7861 33.5074 14.665 33.6979L15.4365 33.859C16.8916 34.1666 17.5166 34.7574 17.5166 35.8463V35.8512C17.5166 37.1354 16.501 37.9508 14.8311 37.9508ZM20.1777 37.9362C19.1621 37.9362 18.6738 37.5065 18.6738 36.4811V33.5367H17.9365V32.6969H18.6738V31.359H19.7529V32.6969H20.7148V33.5367H19.7529V36.4176C19.7529 36.9401 19.9873 37.0963 20.4316 37.0963C20.5439 37.0963 20.6367 37.0865 20.7148 37.0768V37.8922C20.5928 37.9117 20.3926 37.9362 20.1777 37.9362ZM23.0195 37.9264C21.9941 37.9264 21.3057 37.2965 21.3057 36.3737V36.3639C21.3057 35.4703 21.999 34.9235 23.2148 34.8502L24.6113 34.7672V34.3815C24.6113 33.8151 24.2451 33.4733 23.5908 33.4733C22.9805 33.4733 22.6045 33.7614 22.5166 34.1715L22.5068 34.2155H21.5107L21.5156 34.1617C21.5889 33.278 22.3555 32.5992 23.6201 32.5992C24.875 32.5992 25.6709 33.2633 25.6709 34.2936V37.8336H24.6113V37.0231H24.5918C24.2939 37.5748 23.6982 37.9264 23.0195 37.9264ZM22.3701 36.3492C22.3701 36.7985 22.7412 37.0817 23.3076 37.0817C24.0498 37.0817 24.6113 36.5787 24.6113 35.9098V35.5094L23.3564 35.5875C22.7217 35.6266 22.3701 35.9049 22.3701 36.3395V36.3492ZM28.498 37.9362C27.4824 37.9362 26.9941 37.5065 26.9941 36.4811V33.5367H26.2568V32.6969H26.9941V31.359H28.0732V32.6969H29.0352V33.5367H28.0732V36.4176C28.0732 36.9401 28.3076 37.0963 28.752 37.0963C28.8643 37.0963 28.957 37.0865 29.0352 37.0768V37.8922C28.9131 37.9117 28.7129 37.9362 28.498 37.9362ZM31.833 37.9362C30.5488 37.9362 29.7969 37.3014 29.6895 36.3639L29.6846 36.3199H30.7295L30.7393 36.3688C30.8369 36.8424 31.1885 37.1207 31.8379 37.1207C32.4727 37.1207 32.8535 36.8571 32.8535 36.442V36.4371C32.8535 36.1051 32.668 35.9147 32.1162 35.7828L31.2764 35.5924C30.2998 35.3678 29.8164 34.899 29.8164 34.152V34.1471C29.8164 33.2291 30.6172 32.5992 31.7988 32.5992C33.0146 32.5992 33.7471 33.278 33.8008 34.152L33.8057 34.2106H32.8145L32.8096 34.1764C32.7461 33.7272 32.3945 33.4147 31.7988 33.4147C31.2324 33.4147 30.876 33.6832 30.876 34.0934V34.0983C30.876 34.4156 31.0859 34.6305 31.6377 34.7623L32.4727 34.9528C33.5225 35.1969 33.9229 35.6119 33.9229 36.3492V36.3541C33.9229 37.2916 33.0439 37.9362 31.833 37.9362Z" fill="white"/>
</svg>
