<svg width="30" height="30" viewBox="0 0 30 30" fill="none" xmlns="http://www.w3.org/2000/svg">
<path fill-rule="evenodd" clip-rule="evenodd" d="M29.2252 2.09375C28.8558 1.39171 28.254 0.838886 27.5222 0.529203C26.8651 0.195428 26.1397 0.0169849 25.4023 0.00769038H4.77925C4.00087 -0.040773 3.22543 0.140619 2.54983 0.529203C2.12248 0.669215 1.7274 0.892775 1.38768 1.18682C1.04796 1.48086 0.770411 1.83949 0.571258 2.24174C0.126854 2.99399 -0.0661726 3.86769 0.0200844 4.73655C0.0833305 5.53882 0.36964 6.30759 0.846844 6.95651L13.6334 29.2266C13.7928 29.4595 14.006 29.6508 14.255 29.7845C14.504 29.9182 14.7815 29.9903 15.0643 29.9947C15.3552 30.0189 15.6469 29.9594 15.9049 29.8233C16.1629 29.6871 16.3764 29.48 16.5199 29.2266L29.363 6.95651C29.8142 6.25532 30.0353 5.43137 29.9954 4.59913C29.9536 3.71276 29.6887 2.85115 29.2252 2.09375ZM13.4426 22.2777L3.59564 5.13826C3.34126 4.61675 3.21053 4.35599 3.21053 4.35599C3.1736 4.12329 3.21987 3.88506 3.34126 3.68295C3.43982 3.44717 3.62775 3.25974 3.86416 3.16144H13.4426V22.2777ZM26.5859 4.45113C26.6389 4.71395 26.6389 4.98467 26.5859 5.24749L16.5199 22.3623V3.2742H25.2645C25.5737 3.24039 25.8864 3.2865 26.1725 3.4081L26.3103 3.54553C26.4481 3.54553 26.4481 3.79219 26.5859 3.79219C26.6494 4.00727 26.6494 4.23605 26.5859 4.45113Z" fill="#D4D3D8"/>
</svg>
