<?xml version="1.0" encoding="utf-8"?>
<!-- Designed by Vexels.com - 2020 All Rights Reserved - https://vexels.com/terms-and-conditions/  -->
<svg version="1.1" id="Layer_1" xmlns="http://www.w3.org/2000/svg" xmlns:xlink="http://www.w3.org/1999/xlink" x="0px" y="0px"
	 viewBox="0 0 1200 1200" enable-background="new 0 0 1200 1200" xml:space="preserve">
<g>
	<path fill="none" d="M832.716,192.331c21.495-33.288,8.166-45.002,3.776-48.858c-10.486-9.212-28.557-14.205-48.425-14.205
		c-24.235,0-51.166,7.426-70.329,23.667c-53.111,45.002-62.266,77.813-76.061,127.444
		C729.94,273.748,795.72,249.615,832.716,192.331z"/>
	<path fill="none" d="M565.614,282.221c-19.266-70.125-65.723-173.992-171.729-173.992c-29.956,0-65.883,6.357-66.906,36.655
		c-1.638,48.46,68.601,127.637,158.23,133.71C513.288,280.493,540.128,281.789,565.614,282.221z"/>
	<path fill="#ED2F2F" d="M1059.535,321.503H936.55h-39.85H742.103c-31.395,9.117-65.459,14.373-101.17,16.934h0.742V621.96h394.178
		l-0.003,1.036h0.003h23.681c31.958,0,57.956-25.998,57.956-57.956V379.47C1117.491,347.512,1091.493,321.503,1059.535,321.503z"/>
	<path fill="#ED2F2F" d="M565.614,621.96V340.188c-27.804-0.392-55.988-1.582-84.341-3.502
		c-23.789-1.609-46.481-7.042-67.662-15.183H140.465c-31.958,0-57.956,26.01-57.956,57.967v185.57
		c0,31.958,25.998,57.956,57.956,57.956h18.185h3.156l-0.045-1.036H565.614z"/>
	<path fill="#FF7F29" d="M164.84,693.239l-2.695-62.354c-0.216,1.643-0.438,3.288-0.347,5.008l24.349,459.211
		c1.615,30.786,27.045,54.896,57.876,54.896h321.591V693.239H164.84z"/>
	<path fill="#FF7F29" d="M1035.698,693.239H641.676V1150h321.256c31.309,0,56.739-24.508,57.91-55.772l17.378-458.779
		c0.171-4.432-0.739-8.626-2.366-12.453h-0.003L1035.698,693.239z"/>
	<path fill="#08175B" d="M565.614,340.188v-1.751h75.319c35.711-2.561,69.775-7.817,101.17-16.934
		c57.89-16.81,106.683-46.734,139.516-97.579c30.536-47.277,28.023-93.701-6.699-124.202
		c-47.402-41.602-140.272-37.428-194.827,8.791c-43.899,37.2-64.507,69.909-77.699,103.174C570.641,136.183,509.126,50,393.885,50
		c-113.171,0-124.362,71.114-125.101,92.916c-2.201,65.133,58.226,145.304,144.827,178.587
		c21.182,8.141,43.873,13.573,67.662,15.183C509.626,338.606,537.811,339.796,565.614,340.188z M717.737,152.935
		c19.163-16.24,46.094-23.667,70.329-23.667c19.868,0,37.94,4.993,48.425,14.205c4.39,3.855,17.719,15.569-3.776,48.858
		c-36.996,57.285-102.776,81.418-191.04,88.048C655.471,230.748,664.626,197.937,717.737,152.935z M326.979,144.883
		c1.024-30.297,36.95-36.655,66.906-36.655c106.006,0,152.464,103.868,171.729,173.992c-25.486-0.432-52.326-1.729-80.406-3.628
		C395.58,272.52,325.341,193.343,326.979,144.883z"/>
	<polygon fill="#08175B" points="1035.698,693.239 1035.851,622.996 1035.854,621.96 641.676,621.96 641.676,338.437 
		640.934,338.437 565.614,338.437 565.614,340.188 565.614,621.96 161.761,621.96 161.806,622.996 162.144,630.885 164.84,693.239 
		565.614,693.239 565.614,1150 641.676,1150 641.676,693.239 	"/>
</g>
</svg>
