<svg width="24" height="24" viewBox="0 0 24 24" fill="none" xmlns="http://www.w3.org/2000/svg">
<path fill-rule="evenodd" clip-rule="evenodd" d="M8.1 21.212C9.31667 21.7373 10.6167 22 12 22C13.3847 22.0013 14.6847 21.739 15.9 21.213C17.1153 20.687 18.1737 19.9743 19.075 19.075C19.9763 18.1757 20.6887 17.1173 21.212 15.9C21.7353 14.6827 21.998 13.3827 22 12C22.002 10.6173 21.7397 9.31733 21.213 8.1C20.6863 6.88267 19.9737 5.82433 19.075 4.925C18.1763 4.02567 17.118 3.31333 15.9 2.788C14.682 2.26267 13.382 2 12 2C10.618 2 9.318 2.26267 8.1 2.788C6.882 3.31333 5.82367 4.02567 4.925 4.925C4.02634 5.82433 3.314 6.88267 2.788 8.1C2.262 9.31733 1.99934 10.6173 2 12C2.00067 13.3827 2.26334 14.6827 2.788 15.9C3.31267 17.1173 4.025 18.1757 4.925 19.075C5.825 19.9743 6.88334 20.6867 8.1 21.212ZM12 9C12.2833 9 12.521 8.904 12.713 8.712C12.905 8.52 13.0007 8.28267 13 8C12.9993 7.71733 12.9033 7.48 12.712 7.288C12.5207 7.096 12.2833 7 12 7C11.7167 7 11.4793 7.096 11.288 7.288C11.0967 7.48 11.0007 7.71733 11 8C10.9993 8.28267 11.0953 8.52033 11.288 8.713C11.4807 8.90567 11.718 9.00133 12 9ZM11 11V17H13V11H11Z" fill="#96DC68"/>
</svg>
