<svg width="18" height="18" viewBox="0 0 18 18" fill="none" xmlns="http://www.w3.org/2000/svg">
<path d="M10.008 2.1614C10.1332 2.0734 10.2797 2.01921 10.4329 2.00424C10.5861 1.98928 10.7406 2.01405 10.881 2.0761C11.0214 2.13815 11.1428 2.2353 11.233 2.35785C11.3232 2.48039 11.3792 2.62405 11.3952 2.77448L11.4 2.86408V15.1351C11.4001 15.2864 11.3597 15.435 11.283 15.5661C11.2063 15.6973 11.0959 15.8064 10.9629 15.8825C10.8299 15.9586 10.6789 15.9991 10.5249 16C10.371 16.0008 10.2195 15.962 10.0856 15.8873L10.0088 15.8386L4.744 12.1436H2.6C2.19634 12.1437 1.80755 11.9939 1.51156 11.7243C1.21558 11.4546 1.03427 11.085 1.004 10.6895L1 10.5716V7.4276C0.999872 7.031 1.15233 6.64901 1.4268 6.35821C1.70127 6.0674 2.07748 5.88927 2.48 5.85953L2.6 5.8556H4.744L10.008 2.1614ZM15.1336 4.89904C15.7208 5.41509 16.1905 6.04707 16.5121 6.75366C16.8337 7.46026 17 8.22557 17 8.9996C17 9.77363 16.8337 10.5389 16.5121 11.2455C16.1905 11.9521 15.7208 12.5841 15.1336 13.1002C15.0555 13.1701 14.9641 13.2242 14.8646 13.2593C14.7652 13.2943 14.6596 13.3097 14.5541 13.3044C14.4485 13.2992 14.3451 13.2735 14.2497 13.2287C14.1543 13.184 14.0689 13.1211 13.9984 13.0437C13.928 12.9664 13.8738 12.8761 13.839 12.778C13.8042 12.68 13.7896 12.5761 13.7959 12.4725C13.8022 12.3688 13.8294 12.2674 13.8758 12.1741C13.9222 12.0809 13.987 11.9976 14.0664 11.929C14.4859 11.5604 14.8216 11.1089 15.0514 10.6041C15.2812 10.0993 15.4 9.55259 15.4 8.9996C15.4 7.83632 14.8864 6.79094 14.0664 6.07018C13.987 6.00164 13.9222 5.91833 13.8758 5.82505C13.8294 5.73177 13.8022 5.63038 13.7959 5.52674C13.7896 5.42309 13.8042 5.31924 13.839 5.22119C13.8738 5.12313 13.928 5.03282 13.9984 4.95546C14.0689 4.8781 14.1543 4.81523 14.2497 4.77049C14.3451 4.72574 14.4485 4.7 14.5541 4.69475C14.6596 4.6895 14.7652 4.70486 14.8646 4.73992C14.9641 4.77498 15.0555 4.82906 15.1336 4.89904ZM13.5336 6.65653C13.869 6.95133 14.1373 7.31232 14.3211 7.71592C14.5048 8.11953 14.5999 8.55667 14.6 8.99881C14.6001 9.44122 14.5052 9.87867 14.3214 10.2826C14.1376 10.6864 13.8692 11.0477 13.5336 11.3427C13.3819 11.475 13.1846 11.5458 12.9818 11.5407C12.779 11.5356 12.5857 11.4549 12.4411 11.3151C12.2965 11.1752 12.2114 10.9866 12.203 10.7874C12.1947 10.5882 12.2636 10.3934 12.396 10.2423L12.4664 10.1715C12.7944 9.88228 13 9.46491 13 8.9996C13.0001 8.59725 12.8432 8.21017 12.5616 7.91806L12.4664 7.82767C12.387 7.75913 12.3222 7.67582 12.2758 7.58255C12.2294 7.48927 12.2022 7.38788 12.1959 7.28423C12.1896 7.18059 12.2042 7.07674 12.239 6.97868C12.2738 6.88063 12.328 6.79032 12.3984 6.71296C12.4689 6.6356 12.5543 6.57273 12.6497 6.52798C12.7451 6.48323 12.8485 6.45749 12.9541 6.45225C13.0596 6.447 13.1652 6.46235 13.2646 6.49742C13.3641 6.53248 13.4555 6.58656 13.5336 6.65653Z" fill="url(#paint0_linear_2001_879)"/>
<defs>
<linearGradient id="paint0_linear_2001_879" x1="9" y1="6.45455" x2="9" y2="11.5455" gradientUnits="userSpaceOnUse">
<stop stop-color="#A7E9B1"/>
<stop offset="1" stop-color="#547658"/>
</linearGradient>
</defs>
</svg>
