<svg width="27" height="27" viewBox="0 0 27 27" fill="none" xmlns="http://www.w3.org/2000/svg">
<path fill-rule="evenodd" clip-rule="evenodd" d="M22.9607 9.60734C22.8995 9.60374 22.8344 9.6023 22.7653 9.60302H20.0393C17.8068 9.60302 15.897 11.3606 15.897 13.6515C15.897 15.9423 17.8078 17.6999 20.0393 17.6999H22.7653C22.8344 17.7006 22.8999 17.6992 22.9618 17.6956C23.4206 17.6679 23.8538 17.4744 24.1805 17.151C24.5072 16.8277 24.7052 16.3966 24.7377 15.938C24.742 15.8732 24.742 15.8031 24.742 15.7383V11.5646C24.742 11.4999 24.742 11.4297 24.7377 11.3649C24.7052 10.9064 24.5072 10.4753 24.1805 10.1519C23.8538 9.82855 23.4195 9.63501 22.9607 9.60734ZM19.8007 14.731C20.3751 14.731 20.8404 14.2474 20.8404 13.6515C20.8404 13.0555 20.3751 12.5719 19.8007 12.5719C19.2253 12.5719 18.76 13.0555 18.76 13.6515C18.76 14.2474 19.2253 14.731 19.8007 14.731Z" fill="#888F89"/>
<path fill-rule="evenodd" clip-rule="evenodd" d="M22.7641 19.3192C22.8015 19.3177 22.8386 19.3251 22.8726 19.3406C22.9065 19.3562 22.9363 19.3795 22.9596 19.4088C22.9828 19.438 22.9989 19.4723 23.0063 19.5089C23.0138 19.5455 23.0126 19.5833 23.0027 19.6194C22.7868 20.388 22.4424 21.0444 21.8908 21.595C21.0821 22.4047 20.0576 22.762 18.7923 22.9326C17.5616 23.0978 15.9908 23.0978 14.0066 23.0978H11.7265C9.7422 23.0978 8.17033 23.0978 6.94068 22.9326C5.67541 22.762 4.65088 22.4036 3.84228 21.5961C3.03475 20.7875 2.67633 19.763 2.50575 18.4977C2.34058 17.267 2.34058 15.6962 2.34058 13.7119V13.591C2.34058 11.6067 2.34058 10.0348 2.50575 8.8041C2.67633 7.53883 3.03475 6.51431 3.84228 5.7057C4.65088 4.89817 5.67541 4.53975 6.94068 4.36917C8.17141 4.20508 9.7422 4.20508 11.7265 4.20508H14.0066C15.9908 4.20508 17.5627 4.20508 18.7923 4.37025C20.0576 4.54083 21.0821 4.89925 21.8908 5.70678C22.4424 6.25952 22.7868 6.91483 23.0027 7.6835C23.0126 7.71952 23.0138 7.75736 23.0063 7.79396C22.9989 7.83055 22.9828 7.86486 22.9596 7.8941C22.9363 7.92334 22.9065 7.94669 22.8726 7.96224C22.8386 7.97779 22.8015 7.98512 22.7641 7.98362H20.0393C16.9765 7.98362 14.2775 10.4019 14.2775 13.6514C14.2775 16.901 16.9765 19.3192 20.0393 19.3192H22.7641ZM6.38901 8.52341C6.17427 8.52341 5.96832 8.60872 5.81648 8.76056C5.66463 8.91241 5.57933 9.11836 5.57933 9.3331C5.57933 9.54784 5.66463 9.75379 5.81648 9.90563C5.96832 10.0575 6.17427 10.1428 6.38901 10.1428H10.7073C10.9221 10.1428 11.128 10.0575 11.2799 9.90563C11.4317 9.75379 11.517 9.54784 11.517 9.3331C11.517 9.11836 11.4317 8.91241 11.2799 8.76056C11.128 8.60872 10.9221 8.52341 10.7073 8.52341H6.38901Z" fill="#888F89"/>
</svg>
