<svg width="149" height="54" viewBox="0 0 149 54" fill="none" xmlns="http://www.w3.org/2000/svg">
<path d="M0 41.5C0 48.1274 5.37258 53.5 12 53.5H129.059C134.615 53.5 139.774 50.6175 142.686 45.8856L146.997 38.8799C148.896 35.7935 149.299 32.0142 148.093 28.5968L140.826 8.00615C139.132 3.20842 134.598 0 129.51 0H12C5.37258 0 0 5.37258 0 12L0 41.5Z" fill="#131716"/>
<path d="M0.5 41.5C0.5 47.8513 5.64873 53 12 53H129.059C134.442 53 139.439 50.2076 142.26 45.6235L146.571 38.6178C148.391 35.6601 148.777 32.0382 147.622 28.7632L140.354 8.17256C138.731 3.57473 134.386 0.5 129.51 0.5H12C5.64872 0.5 0.5 5.64872 0.5 12V41.5Z" stroke="url(#paint0_linear_12_78)" stroke-opacity="0.4"/>
<defs>
<linearGradient id="paint0_linear_12_78" x1="0" y1="26.75" x2="150" y2="26.75" gradientUnits="userSpaceOnUse">
<stop stop-color="white" stop-opacity="0"/>
<stop offset="0.497522" stop-color="white"/>
<stop offset="1" stop-color="white" stop-opacity="0"/>
</linearGradient>
</defs>
</svg>
