<svg width="393" height="107" viewBox="0 0 393 107" fill="none" xmlns="http://www.w3.org/2000/svg">
<path d="M163 7.4414C163 12 163 14.0817 163 18.7597V39.4784C163 44.1564 165.491 48.4758 169.526 50.7967L190.574 62.9015C194.556 65.1916 199.444 65.1916 203.426 62.9015L224.474 50.7967C228.509 48.4758 231 44.1564 231 39.4784V18.7597C231 14.0817 231 12.5 231 7.4414C231 3.21108 234.545 -0.15579 238.769 0.0616613L385.411 7.60948C389.664 7.82838 393 11.3404 393 15.5989V99.0001C393 103.418 389.418 107 385 107H8C3.58172 107 0 103.418 0 99.0001V15.599C0 11.3405 3.336 7.82841 7.58886 7.60956L155.181 0.0143729C159.433 -0.204426 163 3.18401 163 7.4414Z" fill="#121716"/>
<path d="M162.5 7.4414V7.46808V7.49471V7.52128V7.54779V7.57425V7.60065V7.627V7.65329V7.67953V7.70571V7.73184V7.75791V7.78393V7.8099V7.83581V7.86167V7.88747V7.91323V7.93893V7.96457V7.99017V8.01571V8.04121V8.06665V8.09204V8.11738V8.14266V8.1679V8.19309V8.21823V8.24331V8.26835V8.29334V8.31828V8.34317V8.36801V8.3928V8.41754V8.44224V8.46689V8.49149V8.51604V8.54055V8.56501V8.58942V8.61378V8.6381V8.66238V8.68661V8.71079V8.73492V8.75902V8.78306V8.80707V8.83102V8.85494V8.87881V8.90263V8.92641V8.95015V8.97385V8.9975V9.02111V9.04468V9.0682V9.09169V9.11513V9.13853V9.16189V9.18521V9.20849V9.23172V9.25492V9.27808V9.30119V9.32427V9.34731V9.3703V9.39326V9.41618V9.43906V9.46191V9.48471V9.50748V9.53021V9.5529V9.57556V9.59818V9.62076V9.6433V9.66581V9.68828V9.71072V9.73312V9.75549V9.77782V9.80011V9.82238V9.8446V9.8668V9.88895V9.91108V9.93317V9.95523V9.97725V9.99924V10.0212V10.0431V10.065V10.0869V10.1087V10.1305V10.1523V10.174V10.1957V10.2174V10.239V10.2607V10.2822V10.3038V10.3253V10.3468V10.3683V10.3897V10.4111V10.4325V10.4539V10.4752V10.4965V10.5178V10.539V10.5602V10.5814V10.6026V10.6237V10.6448V10.6659V10.687V10.708V10.729V10.75V10.771V10.7919V10.8128V10.8337V10.8546V10.8754V10.8962V10.917V10.9378V10.9585V10.9792V10.9999V11.0206V11.0413V11.0619V11.0825V11.1031V11.1237V11.1443V11.1648V11.1853V11.2058V11.2263V11.2467V11.2672V11.2876V11.308V11.3283V11.3487V11.369V11.3894V11.4097V11.43V11.4502V11.4705V11.4907V11.5109V11.5311V11.5513V11.5715V11.5917V11.6118V11.6319V11.652V11.6721V11.6922V11.7123V11.7323V11.7524V11.7724V11.7924V11.8124V11.8324V11.8524V11.8723V11.8923V11.9122V11.9322V11.9521V11.972V11.9919V12.0117V12.0316V12.0515V12.0713V12.0912V12.111V12.1308V12.1506V12.1704V12.1902V12.21V12.2298V12.2495V12.2693V12.2891V12.3088V12.3285V12.3483V12.368V12.3877V12.4074V12.4271V12.4468V12.4665V12.4862V12.5059V12.5256V12.5452V12.5649V12.5846V12.6042V12.6239V12.6435V12.6632V12.6828V12.7025V12.7221V12.7417V12.7614V12.781V12.8006V12.8203V12.8399V12.8595V12.8791V12.8988V12.9184V12.938V12.9577V12.9773V12.9969V13.0165V13.0362V13.0558V13.0754V13.095V13.1147V13.1343V13.1539V13.1736V13.1932V13.2129V13.2325V13.2522V13.2718V13.2915V13.3112V13.3308V13.3505V13.3702V13.3899V13.4095V13.4292V13.4489V13.4686V13.4884V13.5081V13.5278V13.5475V13.5673V13.587V13.6068V13.6265V13.6463V13.6661V13.6858V13.7056V13.7254V13.7453V13.7651V13.7849V13.8047V13.8246V13.8445V13.8643V13.8842V13.9041V13.924V13.9439V13.9638V13.9838V14.0037V14.0237V14.0437V14.0637V14.0837V14.1037V14.1237V14.1437V14.1638V14.1839V14.2039V14.224V14.2441V14.2643V14.2844V14.3046V14.3247V14.3449V14.3651V14.3854V14.4056V14.4259V14.4461V14.4664V14.4867V14.507V14.5274V14.5477V14.5681V14.5885V14.6089V14.6294V14.6498V14.6703V14.6908V14.7113V14.7318V14.7524V14.773V14.7936V14.8142V14.8348V14.8555V14.8762V14.8969V14.9176V14.9383V14.9591V14.9799V15.0007V15.0216V15.0424V15.0633V15.0842V15.1052V15.1261V15.1471V15.1681V15.1891V15.2102V15.2313V15.2524V15.2735V15.2947V15.3159V15.3371V15.3584V15.3796V15.4009V15.4223V15.4436V15.465V15.4864V15.5079V15.5293V15.5508V15.5723V15.5939V15.6155V15.6371V15.6588V15.6804V15.7021V15.7239V15.7456V15.7674V15.7893V15.8111V15.833V15.855V15.8769V15.8989V15.9209V15.943V15.9651V15.9872V16.0094V16.0316V16.0538V16.0761V16.0984V16.1207V16.1431V16.1655V16.1879V16.2104V16.2329V16.2554V16.278V16.3006V16.3233V16.346V16.3687V16.3915V16.4143V16.4372V16.46V16.483V16.5059V16.5289V16.552V16.575V16.5982V16.6213V16.6445V16.6678V16.691V16.7144V16.7377V16.7611V16.7846V16.808V16.8316V16.8551V16.8788V16.9024V16.9261V16.9499V16.9736V16.9975V17.0213V17.0453V17.0692V17.0932V17.1173V17.1414V17.1655V17.1897V17.2139V17.2382V17.2625V17.2869V17.3113V17.3358V17.3603V17.3848V17.4094V17.4341V17.4588V17.4835V17.5083V17.5332V17.5581V17.583V17.608V17.633V17.6581V17.6833V17.7084V17.7337V17.759V17.7843V17.8097V17.8351V17.8606V17.8862V17.9118V17.9374V17.9631V17.9889V18.0147V18.0406V18.0665V18.0925V18.1185V18.1446V18.1707V18.1969V18.2231V18.2494V18.2758V18.3022V18.3286V18.3551V18.3817V18.4083V18.435V18.4618V18.4886V18.5154V18.5423V18.5693V18.5963V18.6234V18.6506V18.6778V18.705V18.7324V18.7597V39.4784C162.5 44.3343 165.085 48.8195 169.277 51.2302L190.325 63.3349C194.461 65.7138 199.539 65.7138 203.675 63.3349L224.723 51.2302C228.915 48.8195 231.5 44.3343 231.5 39.4784V18.7597V18.7324V18.7051V18.6778V18.6507V18.6236V18.5965V18.5696V18.5427V18.5159V18.4891V18.4624V18.4358V18.4093V18.3828V18.3564V18.33V18.3038V18.2775V18.2514V18.2253V18.1993V18.1733V18.1474V18.1216V18.0959V18.0702V18.0445V18.0189V17.9934V17.968V17.9426V17.9173V17.892V17.8668V17.8417V17.8166V17.7916V17.7666V17.7417V17.7169V17.6921V17.6674V17.6427V17.6181V17.5936V17.5691V17.5446V17.5203V17.4959V17.4717V17.4475V17.4233V17.3992V17.3752V17.3512V17.3273V17.3034V17.2796V17.2558V17.2321V17.2084V17.1848V17.1613V17.1378V17.1143V17.0909V17.0676V17.0443V17.021V16.9978V16.9747V16.9516V16.9286V16.9056V16.8826V16.8597V16.8369V16.8141V16.7913V16.7686V16.746V16.7233V16.7008V16.6783V16.6558V16.6334V16.611V16.5887V16.5664V16.5441V16.5219V16.4998V16.4777V16.4556V16.4336V16.4116V16.3896V16.3677V16.3459V16.3241V16.3023V16.2806V16.2589V16.2372V16.2156V16.1941V16.1725V16.151V16.1296V16.1082V16.0868V16.0655V16.0442V16.0229V16.0017V15.9805V15.9594V15.9382V15.9172V15.8961V15.8751V15.8542V15.8332V15.8123V15.7915V15.7706V15.7498V15.7291V15.7083V15.6876V15.667V15.6463V15.6257V15.6052V15.5846V15.5641V15.5437V15.5232V15.5028V15.4824V15.4621V15.4417V15.4214V15.4012V15.3809V15.3607V15.3406V15.3204V15.3003V15.2802V15.2601V15.2401V15.22V15.2V15.1801V15.1601V15.1402V15.1203V15.1005V15.0806V15.0608V15.041V15.0212V15.0015V14.9817V14.962V14.9424V14.9227V14.903V14.8834V14.8638V14.8443V14.8247V14.8052V14.7856V14.7661V14.7467V14.7272V14.7078V14.6883V14.6689V14.6495V14.6302V14.6108V14.5915V14.5722V14.5529V14.5336V14.5143V14.495V14.4758V14.4566V14.4374V14.4182V14.399V14.3798V14.3607V14.3415V14.3224V14.3033V14.2842V14.2651V14.246V14.2269V14.2078V14.1888V14.1697V14.1507V14.1317V14.1127V14.0937V14.0747V14.0557V14.0367V14.0178V13.9988V13.9798V13.9609V13.942V13.923V13.9041V13.8852V13.8663V13.8473V13.8284V13.8095V13.7906V13.7718V13.7529V13.734V13.7151V13.6962V13.6773V13.6585V13.6396V13.6207V13.6019V13.583V13.5641V13.5453V13.5264V13.5075V13.4887V13.4698V13.4509V13.4321V13.4132V13.3943V13.3755V13.3566V13.3377V13.3188V13.3V13.2811V13.2622V13.2433V13.2244V13.2055V13.1866V13.1677V13.1487V13.1298V13.1109V13.0919V13.073V13.0541V13.0351V13.0161V12.9972V12.9782V12.9592V12.9402V12.9212V12.9022V12.8831V12.8641V12.845V12.826V12.8069V12.7878V12.7687V12.7496V12.7305V12.7114V12.6923V12.6731V12.6539V12.6348V12.6156V12.5964V12.5771V12.5579V12.5386V12.5194V12.5001V12.4808V12.4615V12.4422V12.4228V12.4034V12.3841V12.3647V12.3452V12.3258V12.3064V12.2869V12.2674V12.2479V12.2284V12.2088V12.1892V12.1696V12.15V12.1304V12.1107V12.0911V12.0714V12.0517V12.0319V12.0121V11.9924V11.9725V11.9527V11.9328V11.913V11.8931V11.8731V11.8532V11.8332V11.8132V11.7931V11.7731V11.753V11.7329V11.7127V11.6925V11.6723V11.6521V11.6319V11.6116V11.5913V11.5709V11.5506V11.5301V11.5097V11.4893V11.4688V11.4482V11.4277V11.4071V11.3865V11.3658V11.3451V11.3244V11.3037V11.2829V11.2621V11.2412V11.2203V11.1994V11.1784V11.1575V11.1364V11.1154V11.0943V11.0731V11.052V11.0307V11.0095V10.9882V10.9669V10.9455V10.9241V10.9027V10.8812V10.8597V10.8382V10.8166V10.7949V10.7733V10.7515V10.7298V10.708V10.6861V10.6643V10.6423V10.6204V10.5984V10.5763V10.5542V10.5321V10.5099V10.4877V10.4654V10.4431V10.4207V10.3983V10.3758V10.3533V10.3308V10.3082V10.2856V10.2629V10.2401V10.2173V10.1945V10.1716V10.1487V10.1257V10.1027V10.0796V10.0565V10.0333V10.0101V9.98682V9.96349V9.94011V9.91668V9.89319V9.86966V9.84607V9.82242V9.79873V9.77498V9.75118V9.72732V9.70341V9.67945V9.65543V9.63135V9.60722V9.58304V9.5588V9.5345V9.51014V9.48573V9.46126V9.43673V9.41215V9.38751V9.3628V9.33804V9.31322V9.28835V9.26341V9.23841V9.21335V9.18823V9.16305V9.13781V9.11251V9.08715V9.06172V9.03624V9.01069V8.98507V8.9594V8.93366V8.90785V8.88199V8.85605V8.83006V8.804V8.77787V8.75168V8.72542V8.6991V8.67271V8.64625V8.61973V8.59314V8.56648V8.53975V8.51296V8.4861V8.45917V8.43217V8.4051V8.37796V8.35075V8.32347V8.29612V8.2687V8.24121V8.21364V8.18601V8.1583V8.13052V8.10267V8.07475V8.04675V8.01868V7.99054V7.96232V7.93402V7.90566V7.87722V7.8487V7.82011V7.79144V7.76269V7.73387V7.70497V7.676V7.64695V7.61782V7.58861V7.55933V7.52996V7.50052V7.471V7.4414C231.5 3.49732 234.805 0.358263 238.744 0.561L385.386 8.10882C389.373 8.31404 392.5 11.6066 392.5 15.5989V99.0001C392.5 103.142 389.142 106.5 385 106.5H8C3.85787 106.5 0.5 103.142 0.5 99.0001V15.599C0.5 11.6066 3.6275 8.31407 7.61456 8.1089L155.207 0.513712C159.173 0.309624 162.5 3.47024 162.5 7.4414Z" stroke="url(#paint0_linear_1_4)" stroke-opacity="0.4"/>
<defs>
<linearGradient id="paint0_linear_1_4" x1="0" y1="53.306" x2="393" y2="53.306" gradientUnits="userSpaceOnUse">
<stop stop-color="white" stop-opacity="0"/>
<stop offset="0.497522" stop-color="white"/>
<stop offset="1" stop-color="white" stop-opacity="0"/>
</linearGradient>
</defs>
</svg>
