<svg width="46" height="48" viewBox="0 0 46 48" fill="none" xmlns="http://www.w3.org/2000/svg">
<path d="M4.97332 9.52202C2.20594 11.1156 0.5 14.0799 0.5 17.2883V30.7117C0.5 33.9201 2.20594 36.8844 4.97332 38.478L18.5924 46.3205C21.3234 47.8932 24.6766 47.8932 27.4076 46.3205L41.0267 38.478C43.7941 36.8844 45.5 33.9201 45.5 30.7117V17.2883C45.5 14.0799 43.7941 11.1156 41.0267 9.52202L27.4076 1.6795C24.6766 0.106834 21.3234 0.106834 18.5924 1.6795L4.97332 9.52202Z" stroke="url(#paint0_linear_2001_1154)" stroke-opacity="0.4"/>
<path d="M2 17.6277C2 14.7287 3.53829 12.0519 6.03089 10.6136L19.0309 3.11202C21.4903 1.6928 24.5097 1.6928 26.9691 3.11202L39.9691 10.6136C42.4617 12.0519 44 14.7287 44 17.6277V30.4675C44 33.3665 42.4617 36.0433 39.9691 37.4817L26.9691 44.9832C24.5097 46.4024 21.4903 46.4024 19.0309 44.9832L6.03089 37.4817C3.53829 36.0433 2 33.3665 2 30.4675V17.6277Z" fill="#0E0910"/>
<path fill-rule="evenodd" clip-rule="evenodd" d="M16.9395 10.2881C17.3413 10.2881 17.7267 10.1285 18.0108 9.84437C18.295 9.56022 18.4546 9.17484 18.4546 8.77299C18.4546 8.37115 18.295 7.98577 18.0108 7.70162C17.7267 7.41747 17.3413 7.25784 16.9395 7.25784C16.5376 7.25784 16.1522 7.41747 15.8681 7.70162C15.5839 7.98577 15.4243 8.37115 15.4243 8.77299C15.4243 9.17484 15.5839 9.56022 15.8681 9.84437C16.1522 10.1285 16.5376 10.2881 16.9395 10.2881ZM17.697 21.6518C18.2998 21.6518 18.8779 21.4123 19.3041 20.9861C19.7303 20.5599 19.9698 19.9818 19.9698 19.3791C19.9698 18.7763 19.7303 18.1982 19.3041 17.772C18.8779 17.3458 18.2998 17.1063 17.697 17.1063C17.0943 17.1063 16.5162 17.3458 16.09 17.772C15.6638 18.1982 15.4243 18.7763 15.4243 19.3791C15.4243 19.9818 15.6638 20.5599 16.09 20.9861C16.5162 21.4123 17.0943 21.6518 17.697 21.6518ZM28.3031 22.4094C28.9059 22.4094 29.4839 22.1699 29.9102 21.7437C30.3364 21.3175 30.5758 20.7394 30.5758 20.1366C30.5758 19.5339 30.3364 18.9558 29.9102 18.5296C29.4839 18.1034 28.9059 17.8639 28.3031 17.8639C27.7003 17.8639 27.1223 18.1034 26.696 18.5296C26.2698 18.9558 26.0304 19.5339 26.0304 20.1366C26.0304 20.7394 26.2698 21.3175 26.696 21.7437C27.1223 22.1699 27.7003 22.4094 28.3031 22.4094ZM22.2425 16.3488C23.0462 16.3488 23.817 16.0295 24.3852 15.4612C24.9535 14.8929 25.2728 14.1221 25.2728 13.3184C25.2728 12.5148 24.9535 11.744 24.3852 11.1757C23.817 10.6074 23.0462 10.2881 22.2425 10.2881C21.4388 10.2881 20.668 10.6074 20.0998 11.1757C19.5315 11.744 19.2122 12.5148 19.2122 13.3184C19.2122 14.1221 19.5315 14.8929 20.0998 15.4612C20.668 16.0295 21.4388 16.3488 22.2425 16.3488ZM26.788 10.2881C27.1898 10.2881 27.5752 10.1285 27.8593 9.84437C28.1435 9.56022 28.3031 9.17484 28.3031 8.77299C28.3031 8.37115 28.1435 7.98577 27.8593 7.70162C27.5752 7.41747 27.1898 7.25784 26.788 7.25784C26.3861 7.25784 26.0007 7.41747 25.7166 7.70162C25.4324 7.98577 25.2728 8.37115 25.2728 8.77299C25.2728 9.17484 25.4324 9.56022 25.7166 9.84437C26.0007 10.1285 26.3861 10.2881 26.788 10.2881Z" fill="#888F89"/>
<path fill-rule="evenodd" clip-rule="evenodd" d="M15.3324 7.16594C15.7586 6.73972 16.3367 6.50027 16.9395 6.50027C17.5422 6.50027 18.1203 6.73972 18.5465 7.16594C18.9728 7.59216 19.2122 8.17024 19.2122 8.773C19.2122 9.37577 18.9728 9.95384 18.5465 10.3801C18.1203 10.8063 17.5422 11.0457 16.9395 11.0457C16.3367 11.0457 15.7586 10.8063 15.3324 10.3801C14.9062 9.95384 14.6667 9.37577 14.6667 8.773C14.6667 8.17024 14.9062 7.59216 15.3324 7.16594ZM16.9395 8.01543C16.7386 8.01543 16.5459 8.09524 16.4038 8.23731C16.2617 8.37939 16.1819 8.57208 16.1819 8.773C16.1819 8.97392 16.2617 9.16662 16.4038 9.30869C16.5459 9.45076 16.7386 9.53058 16.9395 9.53058C17.1404 9.53058 17.3331 9.45076 17.4752 9.30869C17.6172 9.16662 17.6971 8.97392 17.6971 8.773C17.6971 8.57208 17.6172 8.37939 17.4752 8.23731C17.3331 8.09524 17.1404 8.01543 16.9395 8.01543ZM25.1809 7.16594C25.6071 6.73972 26.1852 6.50027 26.788 6.50027C27.3907 6.50027 27.9688 6.73972 28.395 7.16594C28.8212 7.59216 29.0607 8.17024 29.0607 8.773C29.0607 9.37577 28.8212 9.95384 28.395 10.3801C27.9688 10.8063 27.3907 11.0457 26.788 11.0457C26.1852 11.0457 25.6071 10.8063 25.1809 10.3801C24.7547 9.95384 24.5152 9.37577 24.5152 8.773C24.5152 8.17024 24.7547 7.59216 25.1809 7.16594ZM26.788 8.01543C26.587 8.01543 26.3943 8.09524 26.2523 8.23731C26.1102 8.37939 26.0304 8.57208 26.0304 8.773C26.0304 8.97392 26.1102 9.16662 26.2523 9.30869C26.3943 9.45076 26.587 9.53058 26.788 9.53058C26.9889 9.53058 27.1816 9.45076 27.3236 9.30869C27.4657 9.16662 27.5455 8.97392 27.5455 8.773C27.5455 8.57208 27.4657 8.37939 27.3236 8.23731C27.1816 8.09524 26.9889 8.01543 26.788 8.01543ZM19.5641 10.64C20.2744 9.92966 21.2379 9.53058 22.2425 9.53058C23.2471 9.53058 24.2106 9.92966 24.9209 10.64C25.6313 11.3504 26.0304 12.3138 26.0304 13.3185C26.0304 14.3231 25.6313 15.2865 24.9209 15.9969C24.2106 16.7073 23.2471 17.1063 22.2425 17.1063C21.2379 17.1063 20.2744 16.7073 19.5641 15.9969C18.8537 15.2865 18.4546 14.3231 18.4546 13.3185C18.4546 12.3138 18.8537 11.3504 19.5641 10.64ZM22.2425 11.0457C21.6397 11.0457 21.0617 11.2852 20.6354 11.7114C20.2092 12.1376 19.9698 12.7157 19.9698 13.3185C19.9698 13.9212 20.2092 14.4993 20.6354 14.9255C21.0617 15.3517 21.6397 15.5912 22.2425 15.5912C22.8453 15.5912 23.4233 15.3517 23.8496 14.9255C24.2758 14.4993 24.5152 13.9212 24.5152 13.3185C24.5152 12.7157 24.2758 12.1376 23.8496 11.7114C23.4233 11.2852 22.8453 11.0457 22.2425 11.0457ZM15.5543 17.2363C16.1226 16.668 16.8934 16.3488 17.6971 16.3488C18.5007 16.3488 19.2715 16.668 19.8398 17.2363C20.4081 17.8046 20.7274 18.5754 20.7274 19.3791C20.7274 20.1827 20.4081 20.9535 19.8398 21.5218C19.2715 22.0901 18.5007 22.4094 17.6971 22.4094C16.8934 22.4094 16.1226 22.0901 15.5543 21.5218C14.986 20.9535 14.6667 20.1827 14.6667 19.3791C14.6667 18.5754 14.986 17.8046 15.5543 17.2363ZM17.6971 17.8639C17.2952 17.8639 16.9098 18.0235 16.6257 18.3077C16.3415 18.5918 16.1819 18.9772 16.1819 19.3791C16.1819 19.7809 16.3415 20.1663 16.6257 20.4504C16.9098 20.7346 17.2952 20.8942 17.6971 20.8942C18.0989 20.8942 18.4843 20.7346 18.7684 20.4504C19.0526 20.1663 19.2122 19.7809 19.2122 19.3791C19.2122 18.9772 19.0526 18.5918 18.7684 18.3077C18.4843 18.0235 18.0989 17.8639 17.6971 17.8639ZM26.1604 17.9939C26.7287 17.4256 27.4994 17.1063 28.3031 17.1063C29.1068 17.1063 29.8776 17.4256 30.4459 17.9939C31.0142 18.5622 31.3334 19.333 31.3334 20.1366C31.3334 20.9403 31.0142 21.7111 30.4459 22.2794C29.8776 22.8477 29.1068 23.1669 28.3031 23.1669C27.4994 23.1669 26.7287 22.8477 26.1604 22.2794C25.5921 21.7111 25.2728 20.9403 25.2728 20.1366C25.2728 19.333 25.5921 18.5622 26.1604 17.9939ZM28.3031 18.6215C27.9013 18.6215 27.5159 18.7811 27.2317 19.0653C26.9476 19.3494 26.788 19.7348 26.788 20.1366C26.788 20.5385 26.9476 20.9239 27.2317 21.208C27.5159 21.4922 27.9013 21.6518 28.3031 21.6518C28.705 21.6518 29.0903 21.4922 29.3745 21.208C29.6586 20.9239 29.8183 20.5385 29.8183 20.1366C29.8183 19.7348 29.6586 19.3494 29.3745 19.0653C29.0903 18.7811 28.705 18.6215 28.3031 18.6215Z" fill="#888F89"/>
<path fill-rule="evenodd" clip-rule="evenodd" d="M17.5402 9.37368C17.8361 9.07783 18.3158 9.07783 18.6116 9.37368L20.1268 10.8888C20.4226 11.1847 20.4226 11.6644 20.1268 11.9602C19.8309 12.2561 19.3513 12.2561 19.0554 11.9602L17.5402 10.4451C17.2444 10.1492 17.2444 9.66953 17.5402 9.37368ZM25.8086 9.75247C26.1044 10.0483 26.1044 10.528 25.8086 10.8238L25.051 11.5814C24.7552 11.8773 24.2755 11.8773 23.9796 11.5814C23.6838 11.2856 23.6838 10.8059 23.9796 10.51L24.7372 9.75247C25.0331 9.45662 25.5127 9.45662 25.8086 9.75247ZM24.0421 14.9996C24.3688 14.7383 24.8455 14.7912 25.1069 15.1179L27.3796 17.9588C27.641 18.2856 27.588 18.7623 27.2613 19.0237C26.9346 19.285 26.4579 19.2321 26.1965 18.9054L23.9238 16.0644C23.6624 15.7377 23.7154 15.261 24.0421 14.9996ZM21.2631 15.4343C21.559 15.7301 21.559 16.2098 21.2631 16.5057L19.748 18.0208C19.4521 18.3167 18.9725 18.3167 18.6766 18.0208C18.3808 17.725 18.3808 17.2453 18.6766 16.9494L20.1918 15.4343C20.4876 15.1384 20.9673 15.1384 21.2631 15.4343Z" fill="#888F89"/>
<path d="M11.96 37.8336V30.7877H13.0537V37.8336H11.96ZM14.2256 37.8336V32.6969H15.2803V33.4733H15.3047C15.5732 32.9508 16.1006 32.5992 16.877 32.5992C18.0049 32.5992 18.6543 33.3268 18.6543 34.5084V37.8336H17.5947V34.7086C17.5947 33.9371 17.2334 33.5026 16.501 33.5026C15.7588 33.5026 15.2803 34.0397 15.2803 34.8405V37.8336H14.2256ZM21.0762 37.8336L19.2256 32.6969H20.3486L21.6377 36.8033H21.6621L22.9512 32.6969H24.0498L22.209 37.8336H21.0762ZM25.2266 31.9059C24.8848 31.9059 24.6113 31.6324 24.6113 31.3004C24.6113 30.9635 24.8848 30.6901 25.2266 30.6901C25.5732 30.6901 25.8418 30.9635 25.8418 31.3004C25.8418 31.6324 25.5732 31.9059 25.2266 31.9059ZM24.6992 37.8336V32.6969H25.7539V37.8336H24.6992ZM28.6445 37.9362C27.6289 37.9362 27.1406 37.5065 27.1406 36.4811V33.5367H26.4033V32.6969H27.1406V31.359H28.2197V32.6969H29.1816V33.5367H28.2197V36.4176C28.2197 36.9401 28.4541 37.0963 28.8984 37.0963C29.0107 37.0963 29.1035 37.0865 29.1816 37.0768V37.8922C29.0596 37.9117 28.8594 37.9362 28.6445 37.9362ZM32.1211 37.9362C30.6123 37.9362 29.6992 36.9059 29.6992 35.2848V35.2799C29.6992 33.6735 30.627 32.5992 32.0674 32.5992C33.5078 32.5992 34.3916 33.6344 34.3916 35.1774V35.5338H30.7539C30.7734 36.5055 31.3057 37.0719 32.1455 37.0719C32.7705 37.0719 33.1855 36.7496 33.3174 36.3639L33.332 36.3248H34.333L34.3232 36.3785C34.1572 37.194 33.3662 37.9362 32.1211 37.9362ZM32.0723 33.4635C31.3887 33.4635 30.8613 33.9274 30.7686 34.7867H33.3467C33.2588 33.8981 32.7607 33.4635 32.0723 33.4635Z" fill="#B1B1B1"/>
<defs>
<linearGradient id="paint0_linear_2001_1154" x1="1" y1="24" x2="45" y2="24" gradientUnits="userSpaceOnUse">
<stop stop-color="white" stop-opacity="0"/>
<stop offset="0.497522" stop-color="white"/>
<stop offset="1" stop-color="white" stop-opacity="0"/>
</linearGradient>
</defs>
</svg>
