<svg width="46" height="48" viewBox="0 0 46 48" fill="none" xmlns="http://www.w3.org/2000/svg">
<path d="M4.97332 9.52202C2.20594 11.1156 0.5 14.0799 0.5 17.2883V30.7117C0.5 33.9201 2.20594 36.8844 4.97332 38.478L18.5924 46.3205C21.3234 47.8932 24.6766 47.8932 27.4076 46.3205L41.0267 38.478C43.7941 36.8844 45.5 33.9201 45.5 30.7117V17.2883C45.5 14.0799 43.7941 11.1156 41.0267 9.52202L27.4076 1.6795C24.6766 0.106834 21.3234 0.106834 18.5924 1.6795L4.97332 9.52202Z" stroke="url(#paint0_linear_2001_1050)" stroke-opacity="0.4"/>
<path d="M2 17.6277C2 14.7287 3.53829 12.0519 6.03089 10.6136L19.0309 3.11202C21.4903 1.6928 24.5097 1.6928 26.9691 3.11202L39.9691 10.6136C42.4617 12.0519 44 14.7287 44 17.6277V30.4675C44 33.3665 42.4617 36.0433 39.9691 37.4817L26.9691 44.9832C24.5097 46.4024 21.4903 46.4024 19.0309 44.9832L6.03089 37.4817C3.53829 36.0433 2 33.3665 2 30.4675V17.6277Z" fill="#0E0910"/>
<path d="M22.3301 7.22795C22.4962 6.97873 22.4264 6.64178 22.175 6.47907L21.0531 5.75319C20.8065 5.59359 20.4774 5.66177 20.3144 5.90619L18.9253 7.98982L21.0979 9.07611L22.3301 7.22795Z" fill="#888F89"/>
<path d="M24.2388 10.6466L25.2558 9.12108C25.4219 8.87186 25.3521 8.53491 25.1007 8.3722L23.9788 7.64632C23.7322 7.48672 23.4031 7.5549 23.2401 7.79932L22.0662 9.56025L24.2388 10.6466Z" fill="#888F89"/>
<path d="M24.4825 13.3494L25.4661 13.7866C25.7052 13.8928 25.9861 13.8113 26.1312 13.5937L27.9505 10.8648C28.1166 10.6155 28.0468 10.2786 27.7953 10.1159L26.9045 9.53941C26.6578 9.37982 26.3287 9.448 26.1658 9.69242L24.2537 12.5606C24.069 12.8376 24.1783 13.2142 24.4825 13.3494Z" fill="#888F89"/>
<path d="M30.4901 11.8596L29.5993 11.2832C29.3526 11.1236 29.0235 11.1917 28.8606 11.4362L27.2293 13.8831C27.0446 14.1601 27.1538 14.5366 27.4581 14.6719L28.4417 15.109C28.6808 15.2153 28.9616 15.1338 29.1068 14.9161L30.6452 12.6084C30.8114 12.3593 30.7416 12.0223 30.4901 11.8596Z" fill="#888F89"/>
<path d="M28.6597 16.2296C28.6597 16.2296 28.6597 16.2296 28.6596 16.2296C28.433 16.2296 28.2129 16.1829 28.0055 16.0907L22.9861 13.8599H22.6467L24.903 18.3725C25.0395 18.6455 24.9217 18.9792 24.6393 19.1042C24.3749 19.2212 24.0648 19.098 23.9354 18.8394L21.4457 13.8599H19.1479C18.8586 13.8599 18.6098 13.6376 18.5962 13.3487C18.5816 13.0403 18.8274 12.7857 19.1327 12.7857H22.5252C22.7048 12.7857 22.8725 12.6959 22.9721 12.5465L23.3007 12.0536C23.4799 11.7847 23.383 11.4197 23.094 11.2752L18.7488 9.1026C18.5065 8.98146 18.2119 9.0597 18.0617 9.28507L15.5902 12.9923C15.4645 13.1808 15.4707 13.4279 15.6055 13.61L19.5643 18.9542C19.6599 19.0833 19.6927 19.2484 19.6537 19.4042L18.6716 23.3329C18.5868 23.6719 18.8432 24.0003 19.1926 24.0003H27.3158C27.6125 24.0003 27.853 23.7598 27.853 23.4632V20.5964C27.853 20.4171 27.9424 20.2497 28.0914 20.15C28.0914 20.15 28.2261 20.0599 28.4255 19.9269C29.3091 19.3379 29.8367 18.3522 29.8367 17.2902V15.7181C29.5347 16.0418 29.111 16.2296 28.6597 16.2296Z" fill="#888F89"/>
<path d="M14.5039 37.8336V30.7877H17.126C18.5078 30.7877 19.4648 31.7155 19.4648 33.0973V33.1071C19.4648 34.484 18.5078 35.4264 17.126 35.4264H15.5977V37.8336H14.5039ZM16.8525 31.7106H15.5977V34.5084H16.8525C17.8047 34.5084 18.3516 33.9957 18.3516 33.1119V33.1022C18.3516 32.2233 17.8047 31.7106 16.8525 31.7106ZM22.3799 37.8336L19.8701 30.7877H21.0469L22.9707 36.6178H22.9951L24.9189 30.7877H26.0957L23.5859 37.8336H22.3799ZM26.877 37.8336V30.7877H29.499C30.8809 30.7877 31.8379 31.7155 31.8379 33.0973V33.1071C31.8379 34.484 30.8809 35.4264 29.499 35.4264H27.9707V37.8336H26.877ZM29.2256 31.7106H27.9707V34.5084H29.2256C30.1777 34.5084 30.7246 33.9957 30.7246 33.1119V33.1022C30.7246 32.2233 30.1777 31.7106 29.2256 31.7106Z" fill="#B1B1B1"/>
<defs>
<linearGradient id="paint0_linear_2001_1050" x1="1" y1="24" x2="45" y2="24" gradientUnits="userSpaceOnUse">
<stop stop-color="white" stop-opacity="0"/>
<stop offset="0.497522" stop-color="white"/>
<stop offset="1" stop-color="white" stop-opacity="0"/>
</linearGradient>
</defs>
</svg>
