<svg width="46" height="48" viewBox="0 0 46 48" fill="none" xmlns="http://www.w3.org/2000/svg">
<path d="M4.97332 9.52202C2.20594 11.1156 0.5 14.0799 0.5 17.2883V30.7117C0.5 33.9201 2.20594 36.8844 4.97332 38.478L18.5924 46.3205C21.3234 47.8932 24.6766 47.8932 27.4076 46.3205L41.0267 38.478C43.7941 36.8844 45.5 33.9201 45.5 30.7117V17.2883C45.5 14.0799 43.7941 11.1156 41.0267 9.52202L27.4076 1.6795C24.6766 0.106834 21.3234 0.106834 18.5924 1.6795L4.97332 9.52202Z" stroke="url(#paint0_linear_2001_1126)" stroke-opacity="0.4"/>
<path d="M2 17.6277C2 14.7287 3.53829 12.0519 6.03089 10.6136L19.0309 3.11202C21.4903 1.6928 24.5097 1.6928 26.9691 3.11202L39.9691 10.6136C42.4617 12.0519 44 14.7287 44 17.6277V30.4675C44 33.3665 42.4617 36.0433 39.9691 37.4817L26.9691 44.9832C24.5097 46.4024 21.4903 46.4024 19.0309 44.9832L6.03089 37.4817C3.53829 36.0433 2 33.3665 2 30.4675V17.6277Z" fill="#0E0910"/>
<path d="M30.4999 11.5003C30.4999 12.3503 29.5116 13.1003 27.9999 13.5519C27.0549 13.8353 25.9058 14.0003 24.6666 14.0003C23.4274 14.0003 22.2783 13.8344 21.3333 13.5519C19.8224 13.1003 18.8333 12.3503 18.8333 11.5003C18.8333 10.1194 21.4449 9.00027 24.6666 9.00027C27.8883 9.00027 30.4999 10.1194 30.4999 11.5003Z" fill="#888F89"/>
<path d="M30.4999 11.5003C30.4999 10.1194 27.8883 9.00027 24.6666 9.00027C21.4449 9.00027 18.8333 10.1194 18.8333 11.5003M30.4999 11.5003V14.8336C30.4999 15.6836 29.5116 16.4336 27.9999 16.8853C27.0549 17.1686 25.9058 17.3336 24.6666 17.3336C23.4274 17.3336 22.2783 17.1678 21.3333 16.8853C19.8224 16.4336 18.8333 15.6836 18.8333 14.8336V11.5003M30.4999 11.5003C30.4999 12.3503 29.5116 13.1003 27.9999 13.5519C27.0549 13.8353 25.9058 14.0003 24.6666 14.0003C23.4274 14.0003 22.2783 13.8344 21.3333 13.5519C19.8224 13.1003 18.8333 12.3503 18.8333 11.5003" stroke="#888F89" stroke-width="2" stroke-linecap="round" stroke-linejoin="round"/>
<path d="M15.5 14.8336V18.1669C15.5 19.0169 16.4892 19.7669 18 20.2186C18.945 20.5019 20.0942 20.6669 21.3333 20.6669C22.5725 20.6669 23.7217 20.5011 24.6667 20.2186C26.1775 19.7669 27.1667 19.0169 27.1667 18.1669V17.3336M15.5 14.8336C15.5 13.8361 16.8625 12.9753 18.8333 12.5744M15.5 14.8336C15.5 15.6836 16.4892 16.4336 18 16.8853C18.945 17.1686 20.0942 17.3336 21.3333 17.3336C21.9125 17.3336 22.4717 17.2978 23 17.2303" stroke="#888F89" stroke-width="2" stroke-linecap="round" stroke-linejoin="round"/>
<path d="M13.8984 37.8336V30.7877H18.3711V31.7301H14.9922V33.7858H18.1904V34.7037H14.9922V36.8912H18.3711V37.8336H13.8984ZM20.8662 37.9264C19.8408 37.9264 19.1523 37.2965 19.1523 36.3737V36.3639C19.1523 35.4703 19.8457 34.9235 21.0615 34.8502L22.458 34.7672V34.3815C22.458 33.8151 22.0918 33.4733 21.4375 33.4733C20.8271 33.4733 20.4512 33.7614 20.3633 34.1715L20.3535 34.2155H19.3574L19.3623 34.1617C19.4355 33.278 20.2021 32.5992 21.4668 32.5992C22.7217 32.5992 23.5176 33.2633 23.5176 34.2936V37.8336H22.458V37.0231H22.4385C22.1406 37.5748 21.5449 37.9264 20.8662 37.9264ZM20.2168 36.3492C20.2168 36.7985 20.5879 37.0817 21.1543 37.0817C21.8965 37.0817 22.458 36.5787 22.458 35.9098V35.5094L21.2031 35.5875C20.5684 35.6266 20.2168 35.9049 20.2168 36.3395V36.3492ZM24.543 37.8336V32.6969H25.5977V33.5758H25.6221C25.7881 32.9752 26.2178 32.5992 26.8037 32.5992C26.9551 32.5992 27.0869 32.6237 27.1699 32.6383V33.6198C27.0869 33.5856 26.9014 33.5612 26.6963 33.5612C26.0176 33.5612 25.5977 34.0055 25.5977 34.7721V37.8336H24.543ZM27.8242 37.8336V32.6969H28.8789V33.4733H28.9033C29.1719 32.9508 29.6992 32.5992 30.4756 32.5992C31.6035 32.5992 32.2529 33.3268 32.2529 34.5084V37.8336H31.1934V34.7086C31.1934 33.9371 30.832 33.5026 30.0996 33.5026C29.3574 33.5026 28.8789 34.0397 28.8789 34.8405V37.8336H27.8242Z" fill="#B1B1B1"/>
<defs>
<linearGradient id="paint0_linear_2001_1126" x1="1" y1="24" x2="45" y2="24" gradientUnits="userSpaceOnUse">
<stop stop-color="white" stop-opacity="0"/>
<stop offset="0.497522" stop-color="white"/>
<stop offset="1" stop-color="white" stop-opacity="0"/>
</linearGradient>
</defs>
</svg>
