<svg width="60" height="64" viewBox="0 0 60 64" fill="none" xmlns="http://www.w3.org/2000/svg">
<path d="M7.04531 13.123C3.51859 15.2043 1.35227 19.0701 1.35227 23.2456V40.7544C1.35227 44.9299 3.51859 48.7957 7.04531 50.877L24.3786 61.1064C27.861 63.1615 32.139 63.1615 35.6214 61.1064L52.9547 50.877C56.4814 48.7957 58.6477 44.9299 58.6477 40.7544V23.2456C58.6477 19.0701 56.4814 15.2043 52.9547 13.123L35.6214 2.89364C32.139 0.838485 27.861 0.838485 24.3786 2.89364L7.04531 13.123Z" stroke="url(#paint0_linear_2001_1101)" stroke-opacity="0.4" stroke-width="1.29545"/>
<path d="M3.27271 23.6884C3.27271 19.907 5.23053 16.4156 8.40293 14.5395L24.9484 4.75485C28.0786 2.9037 31.9214 2.9037 35.0516 4.75485L51.597 14.5395C54.7694 16.4156 56.7272 19.907 56.7272 23.6884V40.4359C56.7272 44.2173 54.7694 47.7087 51.597 49.5848L35.0516 59.3694C31.9214 61.2206 28.0786 61.2206 24.9484 59.3694L8.40293 49.5848C5.23053 47.7087 3.27271 44.2173 3.27271 40.4359V23.6884Z" fill="#0E0910"/>
<path fill-rule="evenodd" clip-rule="evenodd" d="M39.9607 15.6073C39.8995 15.6037 39.8344 15.6022 39.7653 15.603H37.0393C34.8068 15.603 32.897 17.3605 32.897 19.6514C32.897 21.9423 34.8078 23.6998 37.0393 23.6998H39.7653C39.8344 23.7006 39.8999 23.6991 39.9618 23.6955C40.4206 23.6679 40.8538 23.4743 41.1805 23.151C41.5072 22.8276 41.7052 22.3965 41.7377 21.938C41.742 21.8732 41.742 21.803 41.742 21.7382V17.5646C41.742 17.4998 41.742 17.4296 41.7377 17.3648C41.7052 16.9063 41.5072 16.4752 41.1805 16.1518C40.8538 15.8285 40.4195 15.6349 39.9607 15.6073ZM36.8007 20.731C37.3751 20.731 37.8404 20.2473 37.8404 19.6514C37.8404 19.0555 37.3751 18.5718 36.8007 18.5718C36.2253 18.5718 35.76 19.0555 35.76 19.6514C35.76 20.2473 36.2253 20.731 36.8007 20.731Z" fill="#888F89"/>
<path fill-rule="evenodd" clip-rule="evenodd" d="M39.7641 25.3192C39.8015 25.3177 39.8386 25.325 39.8726 25.3406C39.9065 25.3561 39.9363 25.3795 39.9596 25.4087C39.9828 25.438 39.9989 25.4723 40.0063 25.5089C40.0138 25.5455 40.0126 25.5833 40.0027 25.6193C39.7868 26.388 39.4424 27.0444 38.8908 27.595C38.0821 28.4047 37.0576 28.762 35.7923 28.9326C34.5616 29.0978 32.9908 29.0978 31.0066 29.0978H28.7265C26.7422 29.0978 25.1703 29.0978 23.9407 28.9326C22.6754 28.762 21.6509 28.4036 20.8423 27.5961C20.0347 26.7874 19.6763 25.7629 19.5058 24.4977C19.3406 23.2669 19.3406 21.6961 19.3406 19.7119V19.5909C19.3406 17.6067 19.3406 16.0348 19.5058 14.8041C19.6763 13.5388 20.0347 12.5143 20.8423 11.7057C21.6509 10.8981 22.6754 10.5397 23.9407 10.3691C25.1714 10.205 26.7422 10.205 28.7265 10.205H31.0066C32.9908 10.205 34.5627 10.205 35.7923 10.3702C37.0576 10.5408 38.0821 10.8992 38.8908 11.7067C39.4424 12.2595 39.7868 12.9148 40.0027 13.6835C40.0126 13.7195 40.0138 13.7573 40.0063 13.7939C39.9989 13.8305 39.9828 13.8648 39.9596 13.8941C39.9363 13.9233 39.9065 13.9467 39.8726 13.9622C39.8386 13.9778 39.8015 13.9851 39.7641 13.9836H37.0393C33.9765 13.9836 31.2775 16.4019 31.2775 19.6514C31.2775 22.9009 33.9765 25.3192 37.0393 25.3192H39.7641ZM23.389 14.5234C23.1743 14.5234 22.9683 14.6087 22.8165 14.7605C22.6646 14.9124 22.5793 15.1183 22.5793 15.3331C22.5793 15.5478 22.6646 15.7538 22.8165 15.9056C22.9683 16.0574 23.1743 16.1428 23.389 16.1428H27.7073C27.9221 16.1428 28.128 16.0574 28.2799 15.9056C28.4317 15.7538 28.517 15.5478 28.517 15.3331C28.517 15.1183 28.4317 14.9124 28.2799 14.7605C28.128 14.6087 27.9221 14.5234 27.7073 14.5234H23.389Z" fill="#888F89"/>
<path d="M15.5698 49.2854L13.3315 40.8303H15.1655L16.5015 46.8889H16.5366L18.0952 40.8303H19.6479L21.2065 46.8889H21.2417L22.5835 40.8303H24.4175L22.1733 49.2854H20.4448L18.8921 43.6194H18.8569L17.2983 49.2854H15.5698ZM26.2983 49.385C25.0386 49.385 24.189 48.594 24.189 47.4866V47.4749C24.189 46.3323 25.0737 45.6643 26.6323 45.5647L28.1851 45.4709V45.0842C28.1851 44.5276 27.8218 44.1819 27.1538 44.1819C26.5151 44.1819 26.1284 44.4807 26.0464 44.885L26.0347 44.9377H24.4702L24.4761 44.8674C24.5698 43.7073 25.5659 42.8752 27.2241 42.8752C28.8472 42.8752 29.896 43.7131 29.896 44.9788V49.2854H28.1851V48.3479H28.1499C27.7925 48.9924 27.1245 49.385 26.2983 49.385ZM25.8823 47.3987C25.8823 47.8616 26.2632 48.137 26.855 48.137C27.6226 48.137 28.1851 47.6448 28.1851 46.9885V46.5374L26.8901 46.6194C26.228 46.6604 25.8823 46.9417 25.8823 47.387V47.3987ZM31.0444 49.2854V40.8303H32.7554V49.2854H31.0444ZM33.9507 49.2854V40.8303H35.6616V49.2854H33.9507ZM39.6753 49.4143C37.7534 49.4143 36.5874 48.1663 36.5874 46.1565V46.1506C36.5874 44.1526 37.7651 42.8752 39.605 42.8752C41.4448 42.8752 42.5991 44.1233 42.5991 46.0217V46.5491H38.2749C38.2925 47.551 38.8374 48.137 39.7104 48.137C40.4136 48.137 40.8413 47.7502 40.9644 47.3987L40.9761 47.3635H42.5464L42.5288 47.428C42.3354 48.3538 41.4683 49.4143 39.6753 49.4143ZM39.6343 44.1526C38.9312 44.1526 38.4038 44.6213 38.2925 45.4709H40.9585C40.853 44.6038 40.3433 44.1526 39.6343 44.1526ZM45.98 49.4143C44.5854 49.4143 43.9292 48.8752 43.9292 47.5276V44.2932H43.0562V43.0042H43.9292V41.469H45.6577V43.0042H46.8062V44.2932H45.6577V47.3401C45.6577 47.926 45.9214 48.1252 46.437 48.1252C46.5894 48.1252 46.7007 48.1077 46.8062 48.0959V49.3499C46.6128 49.3792 46.3374 49.4143 45.98 49.4143Z" fill="#B1B1B1"/>
<defs>
<linearGradient id="paint0_linear_2001_1101" x1="2" y1="32" x2="58" y2="32" gradientUnits="userSpaceOnUse">
<stop stop-color="white" stop-opacity="0"/>
<stop offset="0.497522" stop-color="white"/>
<stop offset="1" stop-color="white" stop-opacity="0"/>
</linearGradient>
</defs>
</svg>
