<svg width="46" height="48" viewBox="0 0 46 48" fill="none" xmlns="http://www.w3.org/2000/svg">
<path d="M4.97332 9.52202C2.20594 11.1156 0.5 14.0799 0.5 17.2883V30.7117C0.5 33.9201 2.20594 36.8844 4.97332 38.478L18.5924 46.3205C21.3234 47.8932 24.6766 47.8932 27.4076 46.3205L41.0267 38.478C43.7941 36.8844 45.5 33.9201 45.5 30.7117V17.2883C45.5 14.0799 43.7941 11.1156 41.0267 9.52202L27.4076 1.6795C24.6766 0.106834 21.3234 0.106834 18.5924 1.6795L4.97332 9.52202Z" stroke="url(#paint0_linear_20_197)" stroke-opacity="0.4"/>
<path d="M2 17.6277C2 14.7287 3.53829 12.0519 6.03089 10.6136L19.0309 3.11202C21.4903 1.6928 24.5097 1.6928 26.9691 3.11202L39.9691 10.6136C42.4617 12.0519 44 14.7287 44 17.6277V30.4675C44 33.3665 42.4617 36.0433 39.9691 37.4817L26.9691 44.9832C24.5097 46.4024 21.4903 46.4024 19.0309 44.9832L6.03089 37.4817C3.53829 36.0433 2 33.3665 2 30.4675V17.6277Z" fill="#0E0910"/>
<path fill-rule="evenodd" clip-rule="evenodd" d="M30.0658 11.1489L25.5775 7.43782C24.0656 6.1878 21.9344 6.1878 20.4225 7.43782L15.9341 11.1489C15.1255 11.8175 14.6667 12.8312 14.6667 13.8889V19.6761C14.6667 21.5553 16.1118 23.167 18 23.167H19.6667C20.5871 23.167 21.3333 22.4208 21.3333 21.5003V18.7901C21.3333 17.7339 22.1268 16.9659 23 16.9659C23.8733 16.9659 24.6667 17.7339 24.6667 18.7901V21.5003C24.6667 22.4208 25.4128 23.167 26.3333 23.167H28C29.8883 23.167 31.3333 21.5553 31.3333 19.6761V13.8889C31.3333 12.8312 30.8745 11.8175 30.0658 11.1489Z" fill="#888F89"/>
<path d="M10.6025 37.8336V30.7877H11.6963V33.7662H15.3145V30.7877H16.4082V37.8336H15.3145V34.7135H11.6963V37.8336H10.6025ZM19.7822 37.9362C18.3076 37.9362 17.3457 36.9156 17.3457 35.2653V35.2555C17.3457 33.6149 18.3174 32.5992 19.7773 32.5992C21.2422 32.5992 22.2188 33.61 22.2188 35.2555V35.2653C22.2188 36.9205 21.252 37.9362 19.7822 37.9362ZM19.7871 37.0524C20.6123 37.0524 21.1396 36.3981 21.1396 35.2653V35.2555C21.1396 34.1324 20.6025 33.483 19.7773 33.483C18.9668 33.483 18.4248 34.1324 18.4248 35.2555V35.2653C18.4248 36.403 18.9619 37.0524 19.7871 37.0524ZM23.0342 37.8336V32.6969H24.0889V33.4928H24.1133C24.333 32.9557 24.8555 32.5992 25.5293 32.5992C26.2373 32.5992 26.7549 32.9655 26.96 33.61H26.9844C27.248 32.985 27.8535 32.5992 28.5859 32.5992C29.6016 32.5992 30.2656 33.2731 30.2656 34.3033V37.8336H29.2061V34.5573C29.2061 33.8883 28.8496 33.5026 28.2246 33.5026C27.5996 33.5026 27.165 33.9713 27.165 34.6207V37.8336H26.1299V34.4791C26.1299 33.8834 25.7539 33.5026 25.1582 33.5026C24.5332 33.5026 24.0889 33.9957 24.0889 34.6598V37.8336H23.0342ZM33.4785 37.9362C31.9697 37.9362 31.0566 36.9059 31.0566 35.2848V35.2799C31.0566 33.6735 31.9844 32.5992 33.4248 32.5992C34.8652 32.5992 35.749 33.6344 35.749 35.1774V35.5338H32.1113C32.1309 36.5055 32.6631 37.0719 33.5029 37.0719C34.1279 37.0719 34.543 36.7496 34.6748 36.3639L34.6895 36.3248H35.6904L35.6807 36.3785C35.5146 37.194 34.7236 37.9362 33.4785 37.9362ZM33.4297 33.4635C32.7461 33.4635 32.2188 33.9274 32.126 34.7867H34.7041C34.6162 33.8981 34.1182 33.4635 33.4297 33.4635Z" fill="#B1B1B1"/>
<defs>
<linearGradient id="paint0_linear_20_197" x1="1" y1="24" x2="45" y2="24" gradientUnits="userSpaceOnUse">
<stop stop-color="white" stop-opacity="0"/>
<stop offset="0.497522" stop-color="white"/>
<stop offset="1" stop-color="white" stop-opacity="0"/>
</linearGradient>
</defs>
</svg>
